<svg width="32" height="32" viewBox="0 0 32 32" fill="none" xmlns="http://www.w3.org/2000/svg">
  <rect width="32" height="32" rx="8" fill="url(#paint0_linear_10_12779)"/>
  <g clip-path="url(#clip0_10_12779)">
  <path d="M4.6055 22.4681C4.4657 22.4681 4.35132 22.4237 4.26235 22.3347C4.17339 22.233 4.12891 22.1186 4.12891 21.9915V20.1233C4.12891 19.9454 4.16068 19.7992 4.22423 19.6848C4.30048 19.5704 4.36403 19.4878 4.41486 19.437L10.5534 11.964H4.77708C4.64998 11.964 4.5356 11.9195 4.43393 11.8305C4.34496 11.7415 4.30048 11.6272 4.30048 11.4874V9.60004C4.30048 9.46023 4.34496 9.34585 4.43393 9.25689C4.5356 9.16792 4.64998 9.12344 4.77708 9.12344H14.3852C14.525 9.12344 14.6394 9.16792 14.7284 9.25689C14.83 9.34585 14.8809 9.46023 14.8809 9.60004V11.4492C14.8809 11.589 14.8555 11.7098 14.8047 11.8114C14.7665 11.9131 14.7093 12.0084 14.6331 12.0974L8.6661 19.5895H14.614C14.7538 19.5895 14.8682 19.6403 14.9572 19.742C15.0588 19.831 15.1097 19.9454 15.1097 20.0851V21.9915C15.1097 22.1313 15.0588 22.2457 14.9572 22.3347C14.8682 22.4237 14.7538 22.4681 14.614 22.4681H4.6055ZM22.247 22.6588C21.3065 22.6588 20.4804 22.5507 19.7687 22.3347C19.0697 22.1186 18.4914 21.82 18.0339 21.4387C17.5763 21.0447 17.2332 20.5999 17.0044 20.1042C16.7756 19.5958 16.6613 19.0494 16.6613 18.4647C16.6613 17.7657 16.8328 17.1493 17.176 16.6155C17.5319 16.0817 17.9767 15.6687 18.5105 15.3764C18.0657 15.0841 17.7225 14.7219 17.481 14.2897C17.2522 13.8449 17.1379 13.3302 17.1379 12.7456C17.1379 12.0339 17.3222 11.392 17.6907 10.8201C18.0593 10.2482 18.6185 9.79067 19.3683 9.44752C20.1182 9.10437 21.0777 8.9328 22.247 8.9328C23.4035 8.9328 24.3567 9.10437 25.1065 9.44752C25.8564 9.77796 26.4093 10.2291 26.7651 10.8011C27.1337 11.373 27.3179 12.0148 27.3179 12.7265C27.3179 13.2984 27.2036 13.8131 26.9748 14.2707C26.746 14.7155 26.4156 15.0841 25.9835 15.3764C26.5427 15.656 26.9939 16.069 27.337 16.6155C27.6802 17.162 27.8517 17.7848 27.8517 18.4838C27.8517 19.2463 27.642 19.9454 27.2226 20.5808C26.816 21.2162 26.1996 21.7246 25.3734 22.1059C24.5474 22.4745 23.5052 22.6588 22.247 22.6588ZM22.247 20.2377C22.6537 20.2377 23.0159 20.1677 23.3336 20.028C23.6641 19.8754 23.9246 19.6721 24.1152 19.4179C24.3059 19.151 24.4012 18.8397 24.4012 18.4838C24.4012 18.1025 24.3059 17.7848 24.1152 17.5306C23.9246 17.2764 23.6641 17.0794 23.3336 16.9396C23.0159 16.7998 22.6537 16.7299 22.247 16.7299C21.8403 16.7299 21.4717 16.7998 21.1413 16.9396C20.8108 17.0794 20.5503 17.2764 20.3596 17.5306C20.169 17.7848 20.0737 18.1025 20.0737 18.4838C20.0737 18.8397 20.169 19.151 20.3596 19.4179C20.5503 19.6721 20.8108 19.8754 21.1413 20.028C21.4717 20.1677 21.8403 20.2377 22.247 20.2377ZM22.247 14.4232C22.6028 14.4232 22.9269 14.3596 23.2192 14.2325C23.5116 14.0927 23.7403 13.9148 23.9055 13.6988C24.0708 13.47 24.1533 13.2031 24.1533 12.8981C24.1533 12.5931 24.0708 12.3262 23.9055 12.0974C23.753 11.8686 23.5306 11.6907 23.2383 11.5636C22.946 11.4365 22.6156 11.373 22.247 11.373C21.8784 11.373 21.548 11.4365 21.2556 11.5636C20.9634 11.6907 20.7346 11.8686 20.5693 12.0974C20.4168 12.3262 20.3406 12.5931 20.3406 12.8981C20.3406 13.2031 20.4168 13.47 20.5693 13.6988C20.7346 13.9275 20.9634 14.1055 21.2556 14.2325C21.548 14.3596 21.8784 14.4232 22.247 14.4232Z" fill="white"/>
  </g>
  <defs>
  <linearGradient id="paint0_linear_10_12779" x1="0" y1="15.6596" x2="32" y2="15.6596" gradientUnits="userSpaceOnUse">
  <stop stop-color="#06B6D4"/>
  <stop offset="1" stop-color="#3F83F8"/>
  </linearGradient>
  <clipPath id="clip0_10_12779">
  <rect width="23.8298" height="14.2979" fill="white" transform="translate(4.08496 8.85107)"/>
  </clipPath>
  </defs>
  </svg>
